<svg width="14" height="10" viewBox="0 0 14 10" fill="none" xmlns="http://www.w3.org/2000/svg">
<path d="M2.18744 6.62167H4.81247C4.94065 6.62167 5.04447 6.51713 5.04447 6.38807C5.04447 6.25898 4.94065 6.15444 4.81247 6.15444H2.18744C2.05927 6.15444 1.95545 6.25898 1.95545 6.38807C1.95545 6.51713 2.05927 6.62167 2.18744 6.62167Z" fill="black"/>
<path d="M2.18744 7.72307H4.81247C4.94065 7.72307 5.04447 7.61853 5.04447 7.48947C5.04447 7.36038 4.94065 7.25584 4.81247 7.25584H2.18744C2.05927 7.25584 1.95545 7.36038 1.95545 7.48947C1.95545 7.61853 2.05927 7.72307 2.18744 7.72307Z" fill="black"/>
<path d="M13.3384 0H0.661377C0.296738 0 0 0.303391 0 0.676347V9.01585C0 9.38892 0.296738 9.69231 0.661377 9.69231H13.3384C13.7033 9.69231 14 9.38892 14 9.01585V0.676347C14 0.303391 13.7033 0 13.3384 0ZM13.5625 9.01585C13.5625 9.14209 13.4619 9.24496 13.3384 9.24496H0.661377C0.537912 9.24496 0.437505 9.14209 0.437505 9.01585V3.95252H13.5625V9.01585ZM13.5625 3.503H0.437505V2.16317H13.5625V3.503ZM13.5625 1.71367H0.437505V0.676347C0.437505 0.550105 0.537912 0.447344 0.661377 0.447344H13.3384C13.4619 0.447344 13.5625 0.550105 13.5625 0.676347V1.71367Z" fill="black"/>
<path d="M8.75001 8.1561C9.20499 8.1561 9.60677 7.92282 9.84377 7.56883C10.0808 7.92282 10.4825 8.1561 10.9375 8.1561C11.6645 8.1561 12.2558 7.56066 12.2558 6.82863C12.2558 6.09657 11.6645 5.50113 10.9375 5.50113C10.4825 5.50113 10.0808 5.73441 9.84377 6.0884C9.60677 5.73441 9.20499 5.50113 8.75001 5.50113C8.02305 5.50113 7.43174 6.09657 7.43174 6.82863C7.43174 7.56066 8.02305 8.1561 8.75001 8.1561ZM10.9375 5.9533C11.4169 5.9533 11.8068 6.34588 11.8068 6.82863C11.8068 7.31135 11.4169 7.70393 10.9375 7.70393C10.4582 7.70393 10.0683 7.31135 10.0683 6.82863C10.0683 6.34588 10.4582 5.9533 10.9375 5.9533ZM8.75001 5.9533C9.22938 5.9533 9.61926 6.34588 9.61926 6.82863C9.61926 7.31135 9.22938 7.70393 8.75001 7.70393C8.27063 7.70393 7.88077 7.31135 7.88077 6.82863C7.88077 6.34588 8.27063 5.9533 8.75001 5.9533Z" fill="black"/>
</svg>
